<svg width="105" height="48" viewBox="0 0 105 48" fill="none" xmlns="http://www.w3.org/2000/svg">
<g id="OBJECTS" clip-path="url(#clip0_4_495)">
<path id="Vector" d="M104.401 48H0V0H104.401V48ZM3.81362 44.2151H100.588V3.81362H3.81362V44.2151Z" fill="white"/>
<path id="Vector_2" d="M26.2939 11.0394C33.5484 11.0394 38.3656 15.8853 38.3656 23.1111C38.3656 30.3369 33.5484 35.1828 26.2939 35.1828C19.0394 35.1828 14.2222 30.3656 14.2222 23.1111C14.2222 15.8566 19.0681 11.0394 26.2939 11.0394ZM26.3226 29.9928C30.4229 29.9928 33.1756 27.2401 33.1756 23.1111C33.2043 19.0108 30.4229 16.2294 26.3226 16.2294C22.2222 16.2294 19.4122 18.9821 19.4122 23.1111C19.4122 27.2401 22.1649 29.9928 26.3226 29.9928Z" fill="white"/>
<path id="Vector_3" d="M48.8889 26.4086V34.5233C48.8889 34.724 48.7455 34.8674 48.5448 34.8674H44.043C43.8423 34.8674 43.6989 34.724 43.6989 34.5233V11.6703C43.6989 11.4695 43.8423 11.3262 44.043 11.3262H53.5054C58.2079 11.3262 61.0466 14.6237 61.0753 18.8387C61.0466 22.1075 59.3835 24.8029 56.4588 25.8925L61.5914 34.4373C61.7348 34.724 61.6487 34.8387 61.3907 34.8387H56.4874C56.4874 34.8387 56.2294 34.7814 56.1147 34.6667L51.4982 26.3799H48.9176L48.8889 26.4086ZM48.8889 16.2867V21.448H53.5627C54.1362 21.448 55.8566 20.9319 55.8566 18.8961C55.8566 16.8602 54.1649 16.3154 53.5627 16.2867H48.8889Z" fill="white"/>
<path id="Vector_4" d="M77.3046 26.0358C77.1039 26.0358 76.9606 25.8925 76.9606 25.6918V22.1649C76.9606 21.9642 77.1039 21.8495 77.3046 21.8495H87.2831C87.6272 21.8495 87.7706 22.0789 87.7706 22.3369C87.6272 30.1935 84.4444 35.1828 76.8172 35.1541C69.8494 35.1254 65.2043 30.3369 65.2043 23.0824C65.2043 15.828 70.0215 11.0107 77.276 11.0107C81.1469 11.0107 83.7276 12.3011 85.7921 14.2222C85.9641 14.3656 85.9355 14.5376 85.7921 14.6523L83.1541 18.2079C83.1541 18.2079 82.9821 18.2939 82.9247 18.2939C82.8674 18.2939 82.7813 18.2652 82.6953 18.2079C82.1218 17.6918 80.0287 16.172 77.3333 16.172C73.2043 16.172 70.4229 18.9247 70.4229 23.0538C70.4229 27.1828 73.0036 29.9355 76.8745 29.9355C79.7993 29.9355 81.6917 28.6738 82.4659 26.0072H77.3333L77.3046 26.0358Z" fill="white"/>
</g>
<defs>
<clipPath id="clip0_4_495">
<rect width="104.401" height="48" fill="white"/>
</clipPath>
</defs>
</svg>
